<svg width="45" height="42" viewBox="0 0 45 42" fill="none" xmlns="http://www.w3.org/2000/svg">
<path d="M6.33803 42C4.57747 42 3.08099 41.2794 1.84859 39.8382C0.616197 38.3971 0 36.6471 0 34.5882V22.2353H29.6303C29.8063 20.8353 30.2817 19.6103 31.0563 18.5603C31.831 17.5103 32.7817 16.7588 33.9085 16.3059L43.6796 12.4765L45 17.1706L35.2289 21C34.8063 21.1647 34.463 21.4632 34.1989 21.8956C33.9349 22.3279 33.8028 22.8118 33.8028 23.3471V34.5882C33.8028 36.6471 33.1866 38.3971 31.9542 39.8382C30.7218 41.2794 29.2254 42 27.4648 42H6.33803ZM6.33803 37.0588H27.4648C28.0634 37.0588 28.5651 36.8221 28.9701 36.3485C29.375 35.875 29.5775 35.2882 29.5775 34.5882V27.1765H4.22535V34.5882C4.22535 35.2882 4.42782 35.875 4.83275 36.3485C5.23768 36.8221 5.73944 37.0588 6.33803 37.0588ZM5.12324 17.2941C5.6162 15.8118 5.69542 14.4941 5.36092 13.3412C5.02641 12.1882 4.45423 11.0353 3.64437 9.88235C2.48239 8.23529 1.71655 6.68088 1.34683 5.21912C0.977113 3.75735 0.915493 2.01765 1.16197 0H5.28169C5 1.56471 4.95599 2.84118 5.14965 3.82941C5.34331 4.81765 5.84507 5.88824 6.65493 7.04118C7.99296 8.93529 8.84683 10.6132 9.21655 12.075C9.58627 13.5368 9.59507 15.2765 9.24296 17.2941H5.12324ZM22.0246 17.2941C22.5176 15.8118 22.6056 14.4941 22.2887 13.3412C21.9718 12.1882 21.4085 11.0353 20.5986 9.88235C19.4366 8.23529 18.662 6.68088 18.2746 5.21912C17.8873 3.75735 17.8169 2.01765 18.0634 0H22.1831C21.9014 1.56471 21.8574 2.84118 22.0511 3.82941C22.2447 4.81765 22.7465 5.88824 23.5563 7.04118C24.8944 8.93529 25.7482 10.6132 26.118 12.075C26.4877 13.5368 26.4965 15.2765 26.1444 17.2941H22.0246ZM13.5739 17.2941C14.0669 15.8118 14.1549 14.4941 13.838 13.3412C13.5211 12.1882 12.9577 11.0353 12.1479 9.88235C10.9859 8.23529 10.2113 6.68088 9.82394 5.21912C9.43662 3.75735 9.3662 2.01765 9.61268 0H13.7324C13.4507 1.56471 13.4067 2.84118 13.6004 3.82941C13.794 4.81765 14.2958 5.88824 15.1056 7.04118C16.4437 8.93529 17.2975 10.6132 17.6673 12.075C18.037 13.5368 18.0458 15.2765 17.6937 17.2941H13.5739Z" fill="#C57E5F"/>
</svg>
